<svg xmlns="http://www.w3.org/2000/svg" viewBox="0 0 112 112" width="112" height="112">
  <!-- "poko" in a 2x2 grid. The violet p and second o are pieces in play: tilted 8deg, lifted. -->
  <defs>
    <filter id="lift" x="-50%" y="-50%" width="200%" height="220%"><feDropShadow dx="0" dy="6" stdDeviation="5.4" flood-color="#000" flood-opacity="0.55"/></filter>
  </defs>
  <rect width="112" height="112" fill="#1B1A1F"/><g transform="translate(56 56) scale(0.78) translate(-56 -56)">
  <g transform="rotate(8 34 34)" filter="url(#lift)"><rect x="14" y="14" width="40" height="40" rx="10" fill="#9B7BF5"/></g>
  <g transform="rotate(8 34 34)"><path d="M31.47 46.48L27.45 46.48L27.45 29.05L30.75 29.05L30.80 32.80L31.25 32.85Q31.47 31.45 32.05 30.52Q32.63 29.60 33.54 29.15Q34.45 28.70 35.63 28.70Q37.38 28.70 38.64 29.55Q39.90 30.40 40.58 31.98Q41.25 33.55 41.25 35.75Q41.25 37.70 40.66 39.25Q40.08 40.80 38.89 41.70Q37.70 42.60 35.88 42.60Q34.65 42.60 33.80 42.16Q32.95 41.73 32.36 40.88Q31.77 40.02 31.38 38.75L30.90 38.75Q31.05 39.42 31.17 40.13Q31.30 40.83 31.39 41.48Q31.47 42.13 31.47 42.73L31.47 46.48M34.40 39.42Q35.23 39.42 35.81 38.98Q36.40 38.52 36.73 37.70Q37.05 36.88 37.05 35.77Q37.05 34.60 36.71 33.76Q36.38 32.92 35.75 32.46Q35.13 32 34.30 32Q33.52 32 32.99 32.34Q32.45 32.67 32.11 33.21Q31.77 33.75 31.63 34.35Q31.47 34.95 31.47 35.48L31.47 36.02Q31.47 36.50 31.60 36.98Q31.72 37.45 31.97 37.89Q32.23 38.33 32.58 38.67Q32.92 39.02 33.39 39.23Q33.85 39.42 34.40 39.42" fill="#121115"/></g>
  <rect x="58" y="14" width="40" height="40" rx="10" fill="#2A2830"/>
  <path d="M77.97 42.60Q75.97 42.60 74.44 41.83Q72.90 41.05 72.02 39.50Q71.15 37.95 71.15 35.63Q71.15 33.30 72.02 31.76Q72.90 30.23 74.45 29.46Q76 28.70 78 28.70Q80 28.70 81.55 29.48Q83.10 30.25 83.97 31.79Q84.85 33.33 84.85 35.65Q84.85 38.02 83.95 39.58Q83.05 41.13 81.49 41.86Q79.92 42.60 77.97 42.60M78.10 39.67Q79 39.67 79.60 39.26Q80.20 38.85 80.50 38Q80.80 37.15 80.80 35.90Q80.80 34.58 80.47 33.66Q80.15 32.75 79.51 32.26Q78.88 31.77 77.88 31.77Q77.02 31.77 76.41 32.19Q75.80 32.60 75.50 33.45Q75.20 34.30 75.20 35.58Q75.20 37.63 75.96 38.65Q76.72 39.67 78.10 39.67" fill="#EDEBE6"/>
  <rect x="14" y="58" width="40" height="40" rx="10" fill="#2A2830"/>
  <path d="M31.94 86.25L27.99 86.25L27.99 68.22L31.94 68.22L31.94 78.17Q32.66 77.65 33.30 77.05Q33.94 76.45 34.48 75.80Q35.01 75.15 35.45 74.46Q35.89 73.78 36.21 73.05L40.81 73.05Q40.49 74.03 39.91 74.99Q39.34 75.95 38.51 76.76Q37.69 77.58 36.55 78.15Q35.41 78.72 33.99 78.92L33.99 79.38Q35.79 79.03 36.95 79.36Q38.11 79.70 38.81 80.45Q39.51 81.20 39.89 82.20Q40.26 83.20 40.51 84.17L41.04 86.25L36.66 86.25L36.41 85Q36.16 83.78 35.83 82.90Q35.49 82.03 34.86 81.54Q34.24 81.05 33.06 81.05L31.94 81.05" fill="#EDEBE6"/>
  <g transform="rotate(8 78 78)" filter="url(#lift)"><rect x="58" y="58" width="40" height="40" rx="10" fill="#9B7BF5"/></g>
  <g transform="rotate(8 78 78)"><path d="M77.97 86.60Q75.97 86.60 74.44 85.83Q72.90 85.05 72.02 83.50Q71.15 81.95 71.15 79.63Q71.15 77.30 72.02 75.76Q72.90 74.22 74.45 73.46Q76 72.70 78 72.70Q80 72.70 81.55 73.47Q83.10 74.25 83.97 75.79Q84.85 77.33 84.85 79.65Q84.85 82.03 83.95 83.58Q83.05 85.13 81.49 85.86Q79.92 86.60 77.97 86.60M78.10 83.67Q79 83.67 79.60 83.26Q80.20 82.85 80.50 82Q80.80 81.15 80.80 79.90Q80.80 78.58 80.47 77.66Q80.15 76.75 79.51 76.26Q78.88 75.78 77.88 75.78Q77.02 75.78 76.41 76.19Q75.80 76.60 75.50 77.45Q75.20 78.30 75.20 79.58Q75.20 81.63 75.96 82.65Q76.72 83.67 78.10 83.67" fill="#121115"/></g>
</g></svg>